<svg id="visual" viewBox="0 0 1440 100" width="1440" height="100" xmlns="http://www.w3.org/2000/svg" xmlns:xlink="http://www.w3.org/1999/xlink" version="1.1"><rect x="0" y="0" width="1440" height="100" fill="#2C055C"></rect><path d="M0 75L12 75.8C24 76.7 48 78.3 72 81C96 83.7 120 87.3 144 89.3C168 91.3 192 91.7 216 90.3C240 89 264 86 288 85C312 84 336 85 360 85.7C384 86.3 408 86.7 432 88C456 89.3 480 91.7 504 92.5C528 93.3 552 92.7 576 89.3C600 86 624 80 648 80.3C672 80.7 696 87.3 720 90.5C744 93.7 768 93.3 792 91C816 88.7 840 84.3 864 83C888 81.7 912 83.3 936 84.5C960 85.7 984 86.3 1008 88C1032 89.7 1056 92.3 1080 90.7C1104 89 1128 83 1152 80.3C1176 77.7 1200 78.3 1224 79.5C1248 80.7 1272 82.3 1296 82.2C1320 82 1344 80 1368 80.8C1392 81.7 1416 85.3 1428 87.2L1440 89L1440 0L1428 0C1416 0 1392 0 1368 0C1344 0 1320 0 1296 0C1272 0 1248 0 1224 0C1200 0 1176 0 1152 0C1128 0 1104 0 1080 0C1056 0 1032 0 1008 0C984 0 960 0 936 0C912 0 888 0 864 0C840 0 816 0 792 0C768 0 744 0 720 0C696 0 672 0 648 0C624 0 600 0 576 0C552 0 528 0 504 0C480 0 456 0 432 0C408 0 384 0 360 0C336 0 312 0 288 0C264 0 240 0 216 0C192 0 168 0 144 0C120 0 96 0 72 0C48 0 24 0 12 0L0 0Z" fill="#2c055c"></path><path d="M0 62L12 64C24 66 48 70 72 72.7C96 75.3 120 76.7 144 74.5C168 72.3 192 66.7 216 67.2C240 67.7 264 74.3 288 74.2C312 74 336 67 360 64.7C384 62.3 408 64.7 432 67.8C456 71 480 75 504 75.2C528 75.3 552 71.7 576 71C600 70.3 624 72.7 648 73.5C672 74.3 696 73.7 720 73.3C744 73 768 73 792 74.3C816 75.7 840 78.3 864 76.8C888 75.3 912 69.7 936 69.3C960 69 984 74 1008 73.8C1032 73.7 1056 68.3 1080 67.2C1104 66 1128 69 1152 69.7C1176 70.3 1200 68.7 1224 70.3C1248 72 1272 77 1296 79.3C1320 81.7 1344 81.3 1368 80C1392 78.7 1416 76.3 1428 75.2L1440 74L1440 0L1428 0C1416 0 1392 0 1368 0C1344 0 1320 0 1296 0C1272 0 1248 0 1224 0C1200 0 1176 0 1152 0C1128 0 1104 0 1080 0C1056 0 1032 0 1008 0C984 0 960 0 936 0C912 0 888 0 864 0C840 0 816 0 792 0C768 0 744 0 720 0C696 0 672 0 648 0C624 0 600 0 576 0C552 0 528 0 504 0C480 0 456 0 432 0C408 0 384 0 360 0C336 0 312 0 288 0C264 0 240 0 216 0C192 0 168 0 144 0C120 0 96 0 72 0C48 0 24 0 12 0L0 0Z" fill="#470045"></path><path d="M0 56L12 57C24 58 48 60 72 59C96 58 120 54 144 53.5C168 53 192 56 216 56.2C240 56.3 264 53.7 288 51.8C312 50 336 49 360 50.5C384 52 408 56 432 58C456 60 480 60 504 59.7C528 59.3 552 58.7 576 59.2C600 59.7 624 61.3 648 62.3C672 63.3 696 63.7 720 61.5C744 59.3 768 54.7 792 52.5C816 50.3 840 50.7 864 51.3C888 52 912 53 936 52C960 51 984 48 1008 49.8C1032 51.7 1056 58.3 1080 62C1104 65.7 1128 66.3 1152 65.8C1176 65.3 1200 63.7 1224 63.2C1248 62.7 1272 63.3 1296 63.7C1320 64 1344 64 1368 62.2C1392 60.3 1416 56.7 1428 54.8L1440 53L1440 0L1428 0C1416 0 1392 0 1368 0C1344 0 1320 0 1296 0C1272 0 1248 0 1224 0C1200 0 1176 0 1152 0C1128 0 1104 0 1080 0C1056 0 1032 0 1008 0C984 0 960 0 936 0C912 0 888 0 864 0C840 0 816 0 792 0C768 0 744 0 720 0C696 0 672 0 648 0C624 0 600 0 576 0C552 0 528 0 504 0C480 0 456 0 432 0C408 0 384 0 360 0C336 0 312 0 288 0C264 0 240 0 216 0C192 0 168 0 144 0C120 0 96 0 72 0C48 0 24 0 12 0L0 0Z" fill="#500032"></path><path d="M0 35L12 37C24 39 48 43 72 44C96 45 120 43 144 43C168 43 192 45 216 45.2C240 45.3 264 43.7 288 43.2C312 42.7 336 43.3 360 42.8C384 42.3 408 40.7 432 39.5C456 38.3 480 37.7 504 38.5C528 39.3 552 41.7 576 43.7C600 45.7 624 47.3 648 45.5C672 43.7 696 38.3 720 39C744 39.7 768 46.3 792 46.2C816 46 840 39 864 37.8C888 36.7 912 41.3 936 44.2C960 47 984 48 1008 47.5C1032 47 1056 45 1080 45C1104 45 1128 47 1152 45.3C1176 43.7 1200 38.3 1224 36.5C1248 34.7 1272 36.3 1296 39C1320 41.7 1344 45.3 1368 45.8C1392 46.3 1416 43.7 1428 42.3L1440 41L1440 0L1428 0C1416 0 1392 0 1368 0C1344 0 1320 0 1296 0C1272 0 1248 0 1224 0C1200 0 1176 0 1152 0C1128 0 1104 0 1080 0C1056 0 1032 0 1008 0C984 0 960 0 936 0C912 0 888 0 864 0C840 0 816 0 792 0C768 0 744 0 720 0C696 0 672 0 648 0C624 0 600 0 576 0C552 0 528 0 504 0C480 0 456 0 432 0C408 0 384 0 360 0C336 0 312 0 288 0C264 0 240 0 216 0C192 0 168 0 144 0C120 0 96 0 72 0C48 0 24 0 12 0L0 0Z" fill="#500023"></path><path d="M0 35L12 33.8C24 32.7 48 30.3 72 28.8C96 27.3 120 26.7 144 25.3C168 24 192 22 216 24C240 26 264 32 288 32.3C312 32.7 336 27.3 360 24.5C384 21.7 408 21.3 432 22.5C456 23.7 480 26.3 504 29.2C528 32 552 35 576 34C600 33 624 28 648 26.8C672 25.7 696 28.3 720 29.7C744 31 768 31 792 31C816 31 840 31 864 31.7C888 32.3 912 33.7 936 34.2C960 34.7 984 34.3 1008 33.8C1032 33.3 1056 32.7 1080 31.5C1104 30.3 1128 28.7 1152 27.2C1176 25.7 1200 24.3 1224 25.3C1248 26.3 1272 29.7 1296 31.8C1320 34 1344 35 1368 36C1392 37 1416 38 1428 38.5L1440 39L1440 0L1428 0C1416 0 1392 0 1368 0C1344 0 1320 0 1296 0C1272 0 1248 0 1224 0C1200 0 1176 0 1152 0C1128 0 1104 0 1080 0C1056 0 1032 0 1008 0C984 0 960 0 936 0C912 0 888 0 864 0C840 0 816 0 792 0C768 0 744 0 720 0C696 0 672 0 648 0C624 0 600 0 576 0C552 0 528 0 504 0C480 0 456 0 432 0C408 0 384 0 360 0C336 0 312 0 288 0C264 0 240 0 216 0C192 0 168 0 144 0C120 0 96 0 72 0C48 0 24 0 12 0L0 0Z" fill="#4d0014"></path><path d="M0 14L12 14.3C24 14.7 48 15.3 72 17C96 18.7 120 21.3 144 19.5C168 17.7 192 11.3 216 9.5C240 7.7 264 10.3 288 13.3C312 16.3 336 19.7 360 20.3C384 21 408 19 432 15.8C456 12.7 480 8.3 504 7.7C528 7 552 10 576 11.7C600 13.3 624 13.7 648 12.5C672 11.3 696 8.7 720 10C744 11.3 768 16.7 792 18.2C816 19.7 840 17.3 864 16.2C888 15 912 15 936 16.7C960 18.3 984 21.7 1008 20.7C1032 19.7 1056 14.3 1080 12.2C1104 10 1128 11 1152 10.5C1176 10 1200 8 1224 7.3C1248 6.7 1272 7.3 1296 10.2C1320 13 1344 18 1368 20.2C1392 22.3 1416 21.7 1428 21.3L1440 21L1440 0L1428 0C1416 0 1392 0 1368 0C1344 0 1320 0 1296 0C1272 0 1248 0 1224 0C1200 0 1176 0 1152 0C1128 0 1104 0 1080 0C1056 0 1032 0 1008 0C984 0 960 0 936 0C912 0 888 0 864 0C840 0 816 0 792 0C768 0 744 0 720 0C696 0 672 0 648 0C624 0 600 0 576 0C552 0 528 0 504 0C480 0 456 0 432 0C408 0 384 0 360 0C336 0 312 0 288 0C264 0 240 0 216 0C192 0 168 0 144 0C120 0 96 0 72 0C48 0 24 0 12 0L0 0Z" fill="#470500"></path></svg>