<svg id="visual" viewBox="0 0 1440 100" width="1440" height="100" xmlns="http://www.w3.org/2000/svg" xmlns:xlink="http://www.w3.org/1999/xlink" version="1.1"><rect x="0" y="0" width="1440" height="100" fill="#68bfff"></rect><path d="M0 18L63 18L63 17L125 17L125 21L188 21L188 21L250 21L250 13L313 13L313 23L376 23L376 2L438 2L438 22L501 22L501 18L563 18L563 7L626 7L626 10L689 10L689 8L751 8L751 20L814 20L814 19L877 19L877 22L939 22L939 15L1002 15L1002 8L1064 8L1064 3L1127 3L1127 11L1190 11L1190 17L1252 17L1252 19L1315 19L1315 16L1377 16L1377 8L1440 8L1440 20L1440 101L1440 101L1377 101L1377 101L1315 101L1315 101L1252 101L1252 101L1190 101L1190 101L1127 101L1127 101L1064 101L1064 101L1002 101L1002 101L939 101L939 101L877 101L877 101L814 101L814 101L751 101L751 101L689 101L689 101L626 101L626 101L563 101L563 101L501 101L501 101L438 101L438 101L376 101L376 101L313 101L313 101L250 101L250 101L188 101L188 101L125 101L125 101L63 101L63 101L0 101Z" fill="#68bfff"></path><path d="M0 30L63 30L63 17L125 17L125 18L188 18L188 26L250 26L250 15L313 15L313 33L376 33L376 27L438 27L438 13L501 13L501 29L563 29L563 22L626 22L626 21L689 21L689 19L751 19L751 23L814 23L814 20L877 20L877 24L939 24L939 31L1002 31L1002 21L1064 21L1064 24L1127 24L1127 33L1190 33L1190 29L1252 29L1252 14L1315 14L1315 19L1377 19L1377 25L1440 25L1440 35L1440 101L1440 101L1377 101L1377 101L1315 101L1315 101L1252 101L1252 101L1190 101L1190 101L1127 101L1127 101L1064 101L1064 101L1002 101L1002 101L939 101L939 101L877 101L877 101L814 101L814 101L751 101L751 101L689 101L689 101L626 101L626 101L563 101L563 101L501 101L501 101L438 101L438 101L376 101L376 101L313 101L313 101L250 101L250 101L188 101L188 101L125 101L125 101L63 101L63 101L0 101Z" fill="#7c9be0"></path><path d="M0 34L63 34L63 26L125 26L125 31L188 31L188 37L250 37L250 31L313 31L313 42L376 42L376 40L438 40L438 34L501 34L501 36L563 36L563 34L626 34L626 39L689 39L689 26L751 26L751 37L814 37L814 43L877 43L877 43L939 43L939 30L1002 30L1002 39L1064 39L1064 36L1127 36L1127 29L1190 29L1190 41L1252 41L1252 47L1315 47L1315 37L1377 37L1377 36L1440 36L1440 45L1440 101L1440 101L1377 101L1377 101L1315 101L1315 101L1252 101L1252 101L1190 101L1190 101L1127 101L1127 101L1064 101L1064 101L1002 101L1002 101L939 101L939 101L877 101L877 101L814 101L814 101L751 101L751 101L689 101L689 101L626 101L626 101L563 101L563 101L501 101L501 101L438 101L438 101L376 101L376 101L313 101L313 101L250 101L250 101L188 101L188 101L125 101L125 101L63 101L63 101L0 101Z" fill="#8976b8"></path><path d="M0 49L63 49L63 56L125 56L125 47L188 47L188 50L250 50L250 51L313 51L313 40L376 40L376 59L438 59L438 41L501 41L501 47L563 47L563 49L626 49L626 39L689 39L689 49L751 49L751 44L814 44L814 55L877 55L877 43L939 43L939 49L1002 49L1002 60L1064 60L1064 52L1127 52L1127 45L1190 45L1190 56L1252 56L1252 47L1315 47L1315 58L1377 58L1377 48L1440 48L1440 45L1440 101L1440 101L1377 101L1377 101L1315 101L1315 101L1252 101L1252 101L1190 101L1190 101L1127 101L1127 101L1064 101L1064 101L1002 101L1002 101L939 101L939 101L877 101L877 101L814 101L814 101L751 101L751 101L689 101L689 101L626 101L626 101L563 101L563 101L501 101L501 101L438 101L438 101L376 101L376 101L313 101L313 101L250 101L250 101L188 101L188 101L125 101L125 101L63 101L63 101L0 101Z" fill="#89548a"></path><path d="M0 58L63 58L63 51L125 51L125 54L188 54L188 63L250 63L250 62L313 62L313 66L376 66L376 55L438 55L438 57L501 57L501 70L563 70L563 60L626 60L626 58L689 58L689 68L751 68L751 52L814 52L814 63L877 63L877 59L939 59L939 52L1002 52L1002 66L1064 66L1064 70L1127 70L1127 52L1190 52L1190 70L1252 70L1252 54L1315 54L1315 68L1377 68L1377 73L1440 73L1440 55L1440 101L1440 101L1377 101L1377 101L1315 101L1315 101L1252 101L1252 101L1190 101L1190 101L1127 101L1127 101L1064 101L1064 101L1002 101L1002 101L939 101L939 101L877 101L877 101L814 101L814 101L751 101L751 101L689 101L689 101L626 101L626 101L563 101L563 101L501 101L501 101L438 101L438 101L376 101L376 101L313 101L313 101L250 101L250 101L188 101L188 101L125 101L125 101L63 101L63 101L0 101Z" fill="#7d345b"></path><path d="M0 65L63 65L63 69L125 69L125 71L188 71L188 80L250 80L250 66L313 66L313 81L376 81L376 82L438 82L438 85L501 85L501 82L563 82L563 74L626 74L626 63L689 63L689 85L751 85L751 77L814 77L814 80L877 80L877 71L939 71L939 81L1002 81L1002 78L1064 78L1064 73L1127 73L1127 70L1190 70L1190 77L1252 77L1252 68L1315 68L1315 72L1377 72L1377 71L1440 71L1440 70L1440 101L1440 101L1377 101L1377 101L1315 101L1315 101L1252 101L1252 101L1190 101L1190 101L1127 101L1127 101L1064 101L1064 101L1002 101L1002 101L939 101L939 101L877 101L877 101L814 101L814 101L751 101L751 101L689 101L689 101L626 101L626 101L563 101L563 101L501 101L501 101L438 101L438 101L376 101L376 101L313 101L313 101L250 101L250 101L188 101L188 101L125 101L125 101L63 101L63 101L0 101Z" fill="#66192e"></path><path d="M0 85L63 85L63 77L125 77L125 90L188 90L188 80L250 80L250 83L313 83L313 89L376 89L376 96L438 96L438 86L501 86L501 84L563 84L563 79L626 79L626 94L689 94L689 75L751 75L751 78L814 78L814 92L877 92L877 95L939 95L939 77L1002 77L1002 90L1064 90L1064 80L1127 80L1127 86L1190 86L1190 79L1252 79L1252 77L1315 77L1315 81L1377 81L1377 80L1440 80L1440 84L1440 101L1440 101L1377 101L1377 101L1315 101L1315 101L1252 101L1252 101L1190 101L1190 101L1127 101L1127 101L1064 101L1064 101L1002 101L1002 101L939 101L939 101L877 101L877 101L814 101L814 101L751 101L751 101L689 101L689 101L626 101L626 101L563 101L563 101L501 101L501 101L438 101L438 101L376 101L376 101L313 101L313 101L250 101L250 101L188 101L188 101L125 101L125 101L63 101L63 101L0 101Z" fill="#470500"></path></svg>