<svg id="visual" viewBox="0 0 1440 100" width="1440" height="100" xmlns="http://www.w3.org/2000/svg" xmlns:xlink="http://www.w3.org/1999/xlink" version="1.1"><path d="M0 8L15 10C30 12 60 16 90 17.2C120 18.3 150 16.7 180 14.3C210 12 240 9 270 12C300 15 330 24 360 24C390 24 420 15 450 11.8C480 8.7 510 11.3 540 12C570 12.7 600 11.3 630 11.5C660 11.7 690 13.3 720 16.7C750 20 780 25 810 26.3C840 27.7 870 25.3 900 22.3C930 19.3 960 15.7 990 17.2C1020 18.7 1050 25.3 1080 28.5C1110 31.7 1140 31.3 1170 29.7C1200 28 1230 25 1260 22.2C1290 19.3 1320 16.7 1350 18.7C1380 20.7 1410 27.3 1425 30.7L1440 34L1440 101L1425 101C1410 101 1380 101 1350 101C1320 101 1290 101 1260 101C1230 101 1200 101 1170 101C1140 101 1110 101 1080 101C1050 101 1020 101 990 101C960 101 930 101 900 101C870 101 840 101 810 101C780 101 750 101 720 101C690 101 660 101 630 101C600 101 570 101 540 101C510 101 480 101 450 101C420 101 390 101 360 101C330 101 300 101 270 101C240 101 210 101 180 101C150 101 120 101 90 101C60 101 30 101 15 101L0 101Z" fill="#8724c7"></path><path d="M0 24L15 24C30 24 60 24 90 27.3C120 30.7 150 37.3 180 39.3C210 41.3 240 38.7 270 37.2C300 35.7 330 35.3 360 35.7C390 36 420 37 450 38.2C480 39.3 510 40.7 540 38.7C570 36.7 600 31.3 630 28.3C660 25.3 690 24.7 720 25.7C750 26.7 780 29.3 810 32C840 34.7 870 37.3 900 40.8C930 44.3 960 48.7 990 46.3C1020 44 1050 35 1080 34.8C1110 34.7 1140 43.3 1170 46.3C1200 49.3 1230 46.7 1260 43.7C1290 40.7 1320 37.3 1350 36.3C1380 35.3 1410 36.7 1425 37.3L1440 38L1440 101L1425 101C1410 101 1380 101 1350 101C1320 101 1290 101 1260 101C1230 101 1200 101 1170 101C1140 101 1110 101 1080 101C1050 101 1020 101 990 101C960 101 930 101 900 101C870 101 840 101 810 101C780 101 750 101 720 101C690 101 660 101 630 101C600 101 570 101 540 101C510 101 480 101 450 101C420 101 390 101 360 101C330 101 300 101 270 101C240 101 210 101 180 101C150 101 120 101 90 101C60 101 30 101 15 101L0 101Z" fill="#5f6bec"></path><path d="M0 47L15 51.2C30 55.3 60 63.7 90 67.7C120 71.7 150 71.3 180 68.8C210 66.3 240 61.7 270 58.3C300 55 330 53 360 51.3C390 49.7 420 48.3 450 48.3C480 48.3 510 49.7 540 50.8C570 52 600 53 630 56.2C660 59.3 690 64.7 720 65.7C750 66.7 780 63.3 810 61.2C840 59 870 58 900 56C930 54 960 51 990 51.7C1020 52.3 1050 56.7 1080 58C1110 59.3 1140 57.7 1170 58.3C1200 59 1230 62 1260 61.2C1290 60.3 1320 55.7 1350 54.2C1380 52.7 1410 54.3 1425 55.2L1440 56L1440 101L1425 101C1410 101 1380 101 1350 101C1320 101 1290 101 1260 101C1230 101 1200 101 1170 101C1140 101 1110 101 1080 101C1050 101 1020 101 990 101C960 101 930 101 900 101C870 101 840 101 810 101C780 101 750 101 720 101C690 101 660 101 630 101C600 101 570 101 540 101C510 101 480 101 450 101C420 101 390 101 360 101C330 101 300 101 270 101C240 101 210 101 180 101C150 101 120 101 90 101C60 101 30 101 15 101L0 101Z" fill="#4699fd"></path><path d="M0 89L15 84.8C30 80.7 60 72.3 90 69.8C120 67.3 150 70.7 180 71.5C210 72.3 240 70.7 270 70.2C300 69.7 330 70.3 360 73.5C390 76.7 420 82.3 450 83.7C480 85 510 82 540 81.7C570 81.3 600 83.7 630 86.2C660 88.7 690 91.3 720 89.5C750 87.7 780 81.3 810 79.3C840 77.3 870 79.7 900 79.8C930 80 960 78 990 76.5C1020 75 1050 74 1080 73.5C1110 73 1140 73 1170 72C1200 71 1230 69 1260 70.8C1290 72.7 1320 78.3 1350 79.3C1380 80.3 1410 76.7 1425 74.8L1440 73L1440 101L1425 101C1410 101 1380 101 1350 101C1320 101 1290 101 1260 101C1230 101 1200 101 1170 101C1140 101 1110 101 1080 101C1050 101 1020 101 990 101C960 101 930 101 900 101C870 101 840 101 810 101C780 101 750 101 720 101C690 101 660 101 630 101C600 101 570 101 540 101C510 101 480 101 450 101C420 101 390 101 360 101C330 101 300 101 270 101C240 101 210 101 180 101C150 101 120 101 90 101C60 101 30 101 15 101L0 101Z" fill="#68bfff"></path></svg>